<?xml version="1.0" encoding="iso-8859-1"?>
<!-- Generator: Adobe Illustrator 19.0.0, SVG Export Plug-In . SVG Version: 6.00 Build 0)  -->
<svg version="1.1" id="Capa_1" xmlns="http://www.w3.org/2000/svg" xmlns:xlink="http://www.w3.org/1999/xlink" x="0px" y="0px"
	 viewBox="0 0 511.966 511.966" style="enable-background:new 0 0 511.966 511.966;" xml:space="preserve">
<g>
	<g>
		<g>
			<path d="M511.864,195.717c-0.053-0.588-0.17-1.169-0.35-1.732c-0.186-1.037-0.659-2.001-1.365-2.782
				c-0.331-0.474-0.708-0.915-1.126-1.314c-0.145-0.119-0.205-0.29-0.35-0.401l-82.039-63.735V59.696
				c0-14.138-11.462-25.6-25.6-25.6h-92.476L271.531,5.347c-9.15-7.125-21.971-7.125-31.121,0l-37.035,28.749h-92.476
				c-14.138,0-25.6,11.461-25.6,25.6v66.057L3.26,189.488c-0.145,0.111-0.205,0.282-0.35,0.401c-0.418,0.4-0.795,0.84-1.126,1.314
				c-0.323,0.412-0.608,0.852-0.853,1.314c-0.201,0.475-0.361,0.966-0.478,1.468c-0.178,0.555-0.295,1.127-0.35,1.707
				c0,0.179-0.102,0.333-0.102,0.512v290.159c0.014,5.426,1.766,10.705,5.001,15.061c0.051,0.077,0.06,0.162,0.119,0.239
				c0.06,0.077,0.196,0.145,0.273,0.239c4.794,6.307,12.25,10.026,20.173,10.061h460.8c7.956-0.023,15.444-3.764,20.241-10.112
				c0.068-0.077,0.171-0.102,0.239-0.188c0.068-0.085,0.068-0.162,0.119-0.239c3.234-4.357,4.987-9.635,5-15.061V196.229
				C511.966,196.05,511.872,195.896,511.864,195.717z M250.846,18.813c2.985-2.355,7.195-2.355,10.18,0l19.686,15.283h-49.493
				L250.846,18.813z M27.716,494.896l223.13-173.321c2.98-2.368,7.2-2.368,10.18,0l223.189,173.321H27.716z M494.899,481.584
				L271.531,308.11c-9.146-7.137-21.975-7.137-31.121,0L17.033,481.584V209.226l139.836,108.578c3.726,2.823,9.03,2.123,11.896-1.57
				c2.866-3.693,2.227-9.005-1.434-11.913L25.276,194.011l60.023-46.643v65.929c0,4.713,3.821,8.533,8.533,8.533
				c4.713,0,8.533-3.821,8.533-8.533v-153.6c0-4.713,3.82-8.533,8.533-8.533h290.133c4.713,0,8.533,3.82,8.533,8.533v153.6
				c0,4.713,3.82,8.533,8.533,8.533s8.533-3.821,8.533-8.533v-65.929l60.023,46.643L344.354,304.517
				c-3.726,2.889-4.404,8.251-1.515,11.977c2.889,3.726,8.251,4.404,11.977,1.515l140.083-108.783V481.584z"/>
			<path d="M339.679,113.832C335.053,96.521,321.532,83,304.221,78.375c-17.311-4.625-35.774,0.351-48.417,13.048l-5.871,5.871
				c-2.218,2.143-3.108,5.315-2.327,8.299c0.781,2.984,3.111,5.313,6.094,6.094c2.983,0.781,6.156-0.109,8.299-2.327v0.009
				l5.879-5.871c8.243-8.773,20.607-12.364,32.267-9.372c11.66,2.992,20.767,12.093,23.768,23.75
				c3,11.658-0.582,24.025-9.349,32.274l-23.501,23.501c-7.022,6.991-16.807,10.468-26.665,9.476
				c-9.859-0.991-18.755-6.347-24.244-14.596c-2.609-3.926-7.906-4.994-11.831-2.385c-3.926,2.609-4.994,7.906-2.385,11.831
				c8.314,12.52,21.805,20.651,36.758,22.155c14.953,1.504,29.793-3.777,40.434-14.39l23.501-23.492
				C339.328,149.607,344.304,131.144,339.679,113.832z"/>
			<path d="M249.933,214.823l-5.879,5.871c-8.243,8.773-20.607,12.364-32.267,9.372c-11.66-2.992-20.767-12.093-23.768-23.75
				s0.582-24.025,9.349-32.274l23.501-23.501c7.022-6.991,16.807-10.468,26.665-9.476c9.859,0.991,18.755,6.347,24.244,14.596
				c2.609,3.926,7.906,4.994,11.831,2.385c3.926-2.609,4.994-7.906,2.385-11.831c-8.322-12.509-21.811-20.632-36.76-22.136
				c-14.949-1.504-29.786,3.769-40.432,14.37l-23.501,23.492c-14.317,14.324-18.598,35.861-10.847,54.572
				c7.751,18.711,26.008,30.911,46.26,30.915c13.29,0.038,26.043-5.245,35.413-14.669l5.871-5.871
				c3.234-3.348,3.188-8.671-0.104-11.962C258.603,211.636,253.281,211.589,249.933,214.823z"/>
		</g>
	</g>
</g>
<g>
</g>
<g>
</g>
<g>
</g>
<g>
</g>
<g>
</g>
<g>
</g>
<g>
</g>
<g>
</g>
<g>
</g>
<g>
</g>
<g>
</g>
<g>
</g>
<g>
</g>
<g>
</g>
<g>
</g>
</svg>
